HIERARCHY
ROOT Hips
{
     OFFSET 1.88212 96.90440 -13.34250
     CHANNELS 6 Xposition Yposition Zposition Zrotation Xrotation Yrotation
     JOINT Spine
     {
          OFFSET 0.00000 11.89050 0.00000
          CHANNELS 3 Zrotation Xrotation Yrotation
          JOINT Spine1
          {
               OFFSET -0.00000 25.65740 0.12766
               CHANNELS 3 Zrotation Xrotation Yrotation
               JOINT HEad
               {
                    OFFSET 0.00000 8.73416 0.01134
                    CHANNELS 3 Zrotation Xrotation Yrotation
                    End Site
                    {
                         OFFSET -0.29000 12.77420 2.51395
                    }
               }
               JOINT LeftShoulder1
               {
                    OFFSET 8.99000 -0.36225 -0.22000
                    CHANNELS 3 Zrotation Xrotation Yrotation
                    JOINT LeftArm
                    {
                         OFFSET 10.28270 -0.00338 0.32212
                         CHANNELS 3 Zrotation Xrotation Yrotation
                         JOINT LeftForeArm
                         {
                              OFFSET 32.76690 0.09914 -1.42434
                              CHANNELS 3 Zrotation Xrotation Yrotation
                              JOINT LeftHand
                              {
                                   OFFSET 27.56430 0.08536 1.02216
                                   CHANNELS 3 Zrotation Xrotation Yrotation
                                   End Site
                                   {
                                        OFFSET 16.74430 -0.60000 1.50291
                                   }
                              }
                         }
                    }
               }
               JOINT RightShoulder
               {
                    OFFSET -8.99000 -0.36225 -0.22000
                    CHANNELS 3 Zrotation Xrotation Yrotation
                    JOINT RightArm
                    {
                         OFFSET -10.28270 -0.00338 0.32212
                         CHANNELS 3 Zrotation Xrotation Yrotation
                         JOINT RightForeArm
                         {
                              OFFSET -32.89710 0.09914 -1.42434
                              CHANNELS 3 Zrotation Xrotation Yrotation
                              JOINT RightHand
                              {
                                   OFFSET -27.49210 0.08536 1.02216
                                   CHANNELS 3 Zrotation Xrotation Yrotation
                                   End Site
                                   {
                                        OFFSET -16.63120 -0.60000 1.50291
                                   }
                              }
                         }
                    }
               }
          }
     }
     JOINT LeftUpLeg
     {
          OFFSET 8.94580 -8.66707 0.10165
          CHANNELS 3 Zrotation Xrotation Yrotation
          JOINT LeftLeg
          {
               OFFSET 0.00000 -44.42270 1.37270
               CHANNELS 3 Zrotation Xrotation Yrotation
               JOINT LeftFoot
               {
                    OFFSET -0.25355 -42.09240 -1.46059
                    CHANNELS 3 Zrotation Xrotation Yrotation
                    JOINT LeftToes
                    {
                         OFFSET -0.04000 -4.41509 8.49910
                         CHANNELS 3 Zrotation Xrotation Yrotation
                         End Site
                         {
                              OFFSET 0.08000 -0.04745 9.77979
                         }
                    }
               }
          }
     }
     JOINT RightUpLeg
     {
          OFFSET -8.94580 -8.66707 0.10165
          CHANNELS 3 Zrotation Xrotation Yrotation
          JOINT RightLeg
          {
               OFFSET 0.00000 -44.42270 1.37270
               CHANNELS 3 Zrotation Xrotation Yrotation
               JOINT RightFoot
               {
                    OFFSET 0.25355 -42.09240 -1.46059
                    CHANNELS 3 Zrotation Xrotation Yrotation
                    JOINT RightToes
                    {
                         OFFSET 0.04000 -4.41509 8.49910
                         CHANNELS 3 Zrotation Xrotation Yrotation
                         End Site
                         {
                              OFFSET -0.08000 -0.13745 9.77979
                         }
                    }
               }
          }
     }
}
MOTION
Frames: 15
Frame Time: 0.01667
1.88212 96.90440 -13.34250 6.57730 -9.75068 15.40020 -10.05740 10.61270 1.83600 -7.28731 20.94680 1.81188 -10.70960 18.39720 11.48180 -0.00000 -0.00000 0.00000 -112.26200 -62.80050 -91.31720 -30.30240 53.58140 -83.15440 14.02200 8.39515 -8.67488 17.11040 1.65270 5.94757 78.74380 2.52558 67.70580 5.28323 24.17750 82.59210 19.04230 12.73270 12.13590 14.72470 -8.67077 -24.09380 -23.57040 15.13580 60.02630 -10.10080 10.37690 1.50884 7.81384 -7.07573 -45.92760 -23.40240 7.18706 13.38290 38.01890 4.91960 -48.13350 -20.36800 -7.04561 -0.05636 1.65884 -18.20410 6.43989 
2.59899 96.92120 -13.14770 5.98079 -9.79199 14.72650 -9.67138 10.53800 1.74737 -7.10025 20.81770 1.70882 -11.25090 18.02070 12.04760 -0.00000 -0.00000 0.00000 -119.49000 -64.33840 -97.88790 -31.38090 56.27950 -83.02240 14.57580 8.31813 -8.78810 16.79110 1.66166 6.10996 78.93230 2.87873 68.73290 5.09492 24.66200 83.87180 18.93460 12.72750 12.19650 14.94990 -7.94990 -23.18640 -22.86160 14.81920 59.09290 -9.99217 10.16820 1.47486 7.77014 -7.58858 -46.29800 -23.40720 7.42593 13.52240 38.00150 4.35303 -47.27980 -20.72590 -6.55971 0.03844 1.64976 -18.17220 6.18082 
3.35094 96.93180 -12.97130 5.35556 -9.83151 14.05980 -9.29618 10.47790 1.63128 -6.83946 20.71960 1.53693 -11.67750 17.65720 12.53670 -0.00000 -0.00000 0.00000 -126.81200 -65.46080 -104.58800 -32.13100 58.62800 -83.07470 15.08910 8.25177 -8.84453 16.50880 1.65868 6.20035 79.05990 3.11657 69.63270 4.83919 25.06900 85.07480 18.82130 12.70870 12.18310 15.23530 -7.13000 -21.93350 -22.24430 14.42880 58.14650 -9.67702 9.91185 1.40576 7.62562 -8.82459 -46.99380 -23.46400 7.72210 13.68180 38.06050 3.58159 -46.56270 -21.36020 -5.81696 0.19075 1.71433 -18.66080 6.06039 
4.13792 96.94020 -12.81380 4.70165 -9.86551 13.42230 -8.91753 10.43030 1.49009 -6.52555 20.64730 1.31141 -11.93400 17.29460 12.92920 -0.00000 -0.00000 0.00000 -134.11099 -66.20520 -111.27900 -32.77610 60.72100 -83.10960 15.53850 8.19193 -8.90366 16.32200 1.64142 6.18053 79.13170 3.25894 70.38220 4.56471 25.41910 86.19690 18.63060 12.67560 12.15220 15.57760 -6.25350 -20.49170 -21.78230 13.93970 57.31860 -9.32035 9.41848 1.31407 7.44042 -10.24500 -47.80750 -23.58620 8.09419 13.85130 38.21220 2.57541 -45.97380 -22.19510 -4.82890 0.40613 1.84353 -19.58510 6.14125 
4.96154 96.94640 -12.68170 4.04915 -9.92210 12.85990 -8.50978 10.40380 1.31888 -6.19185 20.61510 1.03668 -12.03390 16.87420 13.23030 -0.00000 -0.00000 0.00000 -141.13600 -66.60200 -117.69700 -33.49820 62.60370 -82.93620 15.91080 8.13447 -9.00852 16.27130 1.61930 6.08257 79.16330 3.26925 70.96590 4.31216 25.73020 87.23000 18.33690 12.63270 12.15050 15.92190 -5.37150 -19.11070 -21.50660 13.37140 56.73080 -9.03789 8.64680 1.21611 7.28901 -11.36950 -48.56410 -23.79860 8.59474 14.00340 38.45990 1.33906 -45.45790 -23.22860 -3.60988 0.69226 2.03074 -20.86520 6.36507 
5.82182 96.94120 -12.58470 3.46640 -10.03950 12.41000 -8.09147 10.41220 1.12520 -5.87060 20.64980 0.71991 -12.04670 16.37060 13.45570 -0.00000 -0.00000 0.00000 -146.70700 -66.75740 -122.76900 -33.84910 63.98090 -82.93270 16.18600 8.09248 -9.07897 16.34730 1.59757 5.93905 79.19200 3.12290 71.39550 4.10086 26.01350 88.17430 18.00040 12.58430 12.15380 16.16980 -4.52345 -17.97760 -21.39550 12.77870 56.47380 -8.79447 7.73292 1.11728 7.18555 -12.16650 -49.24860 -24.15310 9.24326 14.12710 38.80140 -0.04107 -44.98020 -24.47970 -2.15337 1.06458 2.28813 -22.56730 6.62792 
6.71188 96.92370 -12.53110 2.98720 -10.22840 12.07350 -7.71467 10.46180 0.93380 -5.58339 20.76310 0.39518 -12.01650 15.82740 13.60020 -0.00000 -0.00000 0.00000 -149.40601 -66.90220 -125.24400 -32.98120 64.45320 -83.86730 16.34650 8.09300 -8.93708 16.53760 1.57016 5.72566 79.23960 2.84419 71.70240 3.90957 26.27910 89.05160 17.70500 12.53660 12.12360 16.27450 -3.73679 -17.11000 -21.38590 12.20550 56.57930 -8.45338 6.93570 1.01781 7.06401 -13.01750 -49.98810 -24.66560 10.03390 14.21580 39.21070 -1.51663 -44.49090 -25.94040 -0.42938 1.54648 2.62465 -24.74510 6.85066 
7.63022 96.88360 -12.51870 2.56028 -10.46720 11.80740 -7.36298 10.54230 0.76746 -5.28642 20.93080 0.11275 -11.94020 15.31350 13.64250 -0.00000 -0.00000 0.00000 -151.31900 -66.93010 -126.94200 -31.83050 64.79200 -84.91430 16.42760 8.12572 -8.63182 16.83650 1.52965 5.41106 79.30170 2.47290 71.91130 3.66808 26.53040 89.91520 17.46820 12.49230 12.06090 16.27420 -3.11876 -16.37950 -21.43380 11.86240 56.99080 -7.97420 6.42385 0.92442 6.83344 -14.33000 -50.88030 -25.19980 10.68320 14.16260 39.62760 -2.54681 -44.02360 -27.31670 1.33690 2.07778 2.99530 -27.13580 6.95144 
8.55150 96.82200 -12.53750 2.19099 -10.68880 11.55440 -7.15766 10.63380 0.66051 -5.01272 21.11570 -0.09895 -11.82420 14.88810 13.58900 -0.00000 -0.00000 0.00000 -152.37399 -66.87820 -127.81000 -30.32150 64.98100 -86.16910 16.45540 8.18612 -8.17267 17.18350 1.48016 5.04396 79.39980 2.02264 72.02930 3.28323 26.76000 90.83850 17.23500 12.44630 11.98250 16.18250 -2.71328 -15.66700 -21.51910 11.79860 57.56400 -7.32823 6.24162 0.83448 6.44146 -16.21270 -51.83080 -25.66800 10.83700 13.88880 39.98360 -2.55017 -43.65990 -28.23520 2.82341 2.53610 3.31353 -29.25650 6.88417 
9.47321 96.75370 -12.57960 1.81217 -10.86170 11.28230 -6.99334 10.72110 0.58112 -4.75012 21.28850 -0.25153 -11.69230 14.57450 13.49650 -0.00000 -0.00000 0.00000 -152.70100 -66.80030 -127.98100 -28.58110 65.00800 -87.50980 16.46290 8.24844 -7.71623 17.47590 1.43703 4.73628 79.59110 1.49756 72.05780 2.71353 26.95800 91.85990 16.94760 12.39170 11.89630 16.09280 -2.51790 -15.01370 -21.66800 11.95920 58.17380 -6.51241 6.26193 0.73651 5.90781 -18.47000 -52.64690 -26.13210 10.91950 13.63680 40.30030 -2.55782 -43.17060 -28.95290 4.27585 2.98815 3.52892 -30.80400 6.70571 
10.39150 96.68180 -12.63660 1.46193 -10.96760 10.97090 -6.88947 10.79760 0.52883 -4.51480 21.44050 -0.36157 -11.55440 14.33680 13.43410 -0.00000 -0.00000 0.00000 -151.76300 -66.80930 -127.02400 -26.51810 64.60330 -89.00530 16.44610 8.30263 -7.33674 17.67990 1.41194 4.55123 79.88380 0.93102 72.01120 2.04525 27.12410 92.92940 16.60900 12.32880 11.80010 15.99590 -2.45628 -14.53850 -21.92120 12.17780 58.84510 -5.55065 6.34545 0.62323 5.29351 -20.85450 -53.31520 -26.58330 10.61850 13.35110 40.59250 -1.99348 -42.73850 -29.22540 5.47662 3.33700 3.66345 -31.83790 6.53476 
11.30650 96.62180 -12.70690 1.11211 -11.02370 10.61220 -6.76944 10.86220 0.49368 -4.30613 21.57090 -0.41978 -11.42370 14.11760 13.43300 -0.00000 -0.00000 0.00000 -148.71201 -66.97050 -124.23600 -24.04910 63.41640 -90.73810 16.35460 8.36406 -6.95749 17.84980 1.40567 4.47190 80.20760 0.36950 71.92550 1.44676 27.26670 93.93880 16.28850 12.26710 11.69110 15.93870 -2.44218 -14.26460 -22.27060 12.31920 59.64140 -4.54760 6.45166 0.50434 4.65178 -23.18430 -54.03890 -27.02700 9.97932 13.07530 40.90910 -0.96933 -42.38750 -29.14880 6.53415 3.60725 3.77869 -32.63540 6.48488 
12.20340 96.57860 -12.78760 0.76309 -11.04220 10.19570 -6.64692 10.91800 0.49136 -4.11959 21.68470 -0.40291 -11.33330 13.87420 13.48660 -0.00000 -0.00000 0.00000 -145.69400 -67.02240 -121.48500 -22.18330 62.25350 -91.90040 16.19710 8.41982 -6.66188 18.03750 1.41589 4.46956 80.49150 -0.16773 71.85220 1.01750 27.39190 94.81070 16.06350 12.22030 11.58730 15.90490 -2.44622 -14.03280 -22.63530 12.42580 60.49650 -3.71706 6.57125 0.40538 4.03433 -25.25480 -54.96570 -27.54080 9.30315 12.93760 41.28250 -0.11696 -41.98120 -29.01650 7.76959 3.91482 3.92430 -33.42530 6.62380 
13.06770 96.56560 -12.87500 0.42603 -11.03170 9.72298 -6.53979 10.97030 0.53266 -3.95697 21.79190 -0.29682 -11.30950 13.57580 13.57870 -0.00000 -0.00000 0.00000 -143.12601 -66.92340 -119.12400 -20.88140 61.29650 -92.62060 16.00620 8.46987 -6.42603 18.24870 1.43895 4.52302 80.71600 -0.67585 71.84560 0.68874 27.49820 95.56430 15.95580 12.19360 11.50810 15.84700 -2.43522 -13.65140 -22.89180 12.54640 61.22400 -3.19347 6.70566 0.34340 3.49223 -26.89930 -56.03650 -28.11240 8.58734 12.90600 41.68900 0.61193 -41.46460 -28.83170 9.23231 4.27058 4.10147 -34.24680 6.89604 
13.89240 96.59580 -12.96500 0.11115 -10.99790 9.22631 -6.42795 11.02160 0.60589 -3.81727 21.89690 -0.11787 -11.35770 13.20960 13.69860 -0.00000 -0.00000 0.00000 -141.10001 -66.68010 -117.23700 -19.96090 60.58920 -93.12090 15.83310 8.51259 -6.22691 18.45650 1.46779 4.60422 80.89990 -1.13631 71.94670 0.27981 27.57500 96.30110 15.93330 12.17880 11.42790 15.72610 -2.37341 -13.05780 -22.95270 12.65380 61.68790 -2.91757 6.85463 0.31176 3.04685 -28.11360 -57.09780 -28.71590 7.85479 12.92020 42.07470 1.25248 -40.72310 -28.59250 10.93380 4.67406 4.26481 -35.05010 7.07926 
